ply
format ascii 1.0
comment Created by Blender 2.82 (sub 7) - www.blender.org, source file: ''
element vertex 193
property float x
property float y
property float z
property float nx
property float ny
property float nz
property uchar red
property uchar green
property uchar blue
property uchar alpha
element face 99
property list uchar uint vertex_indices
end_header
0.011250 0.043167 0.044743 -0.000000 0.000000 -1.000000 143 143 143 255
0.026136 0.045317 0.044743 -0.000000 0.000000 -1.000000 143 143 143 255
0.027091 0.042234 0.044743 -0.000000 0.000000 -1.000000 143 143 143 255
0.011242 0.041017 0.046743 0.000000 -1.000000 -0.000001 143 143 143 255
0.011242 0.041017 0.044076 0.000000 -1.000000 -0.000001 143 143 143 255
0.026373 0.041017 0.046195 0.000000 -1.000000 -0.000001 143 143 143 255
-0.014929 0.041017 0.051543 0.000006 -1.000000 -0.000014 143 143 143 255
-0.026389 0.041017 0.046195 0.000006 -1.000000 -0.000014 143 143 143 255
-0.011258 0.041017 0.044743 0.000006 -1.000000 -0.000014 143 143 143 255
0.011242 0.041017 0.046743 0.000000 -1.000000 -0.000000 143 143 143 255
0.026373 0.041017 0.046195 0.000000 -1.000000 -0.000000 143 143 143 255
0.014912 0.041017 0.051543 0.000000 -1.000000 -0.000000 143 143 143 255
0.011242 0.041017 0.046743 -0.000015 -1.000000 0.000011 143 143 143 255
0.014912 0.041017 0.051543 -0.000015 -1.000000 0.000011 143 143 143 255
0.000805 0.041017 0.050719 -0.000015 -1.000000 0.000011 143 143 143 255
0.011242 0.041017 0.046743 -0.000008 -1.000000 0.000030 143 143 143 255
0.000805 0.041017 0.050719 -0.000008 -1.000000 0.000030 143 143 143 255
-0.011258 0.041017 0.044743 -0.000008 -1.000000 0.000030 143 143 143 255
0.000805 0.041017 0.050719 0.000012 -1.000000 -0.000011 143 143 143 255
-0.014929 0.041017 0.051543 0.000012 -1.000000 -0.000011 143 143 143 255
-0.011258 0.041017 0.044743 0.000012 -1.000000 -0.000011 143 143 143 255
0.011242 0.045317 0.046743 0.000154 1.000000 0.000001 143 143 143 255
0.025416 0.045315 0.049336 0.000154 1.000000 0.000001 143 143 143 255
0.011242 0.045317 0.042743 0.000154 1.000000 0.000001 143 143 143 255
-0.011258 0.045317 0.044743 -0.000007 1.000000 0.000077 143 143 143 255
-0.025401 0.045317 0.049370 -0.000007 1.000000 0.000077 143 143 143 255
0.000805 0.045317 0.050719 -0.000007 1.000000 0.000077 143 143 143 255
0.000805 0.045317 0.050719 0.000106 1.000000 0.000259 143 143 143 255
0.025416 0.045315 0.049336 0.000106 1.000000 0.000259 143 143 143 255
0.011242 0.045317 0.046743 0.000106 1.000000 0.000259 143 143 143 255
-0.011258 0.045317 0.044743 0.000018 1.000000 0.000026 143 143 143 255
0.000805 0.045317 0.050719 0.000018 1.000000 0.000026 143 143 143 255
0.011242 0.045317 0.046743 0.000018 1.000000 0.000026 143 143 143 255
-0.022718 0.037281 0.035787 -0.996164 0.000000 -0.087504 143 143 143 255
-0.019548 0.033721 -0.000301 -0.996164 0.000000 -0.087504 143 143 143 255
-0.022718 -0.032132 0.035787 -0.996164 0.000000 -0.087504 143 143 143 255
-0.019548 -0.028572 -0.000301 -0.996164 0.000000 -0.087504 143 143 143 255
0.019034 0.033721 -0.000757 0.000000 0.000000 -1.000000 143 143 143 255
0.019034 -0.028572 -0.000757 0.000000 0.000000 -1.000000 143 143 143 255
-0.019050 0.033721 -0.000757 0.000000 0.000000 -1.000000 143 143 143 255
-0.019050 -0.028572 -0.000757 0.000000 0.000000 -1.000000 143 143 143 255
0.022702 -0.032132 0.035787 0.996164 0.000000 -0.087504 143 143 143 255
0.019532 -0.028572 -0.000301 0.996164 0.000000 -0.087504 143 143 143 255
0.022702 0.037281 0.035787 0.996164 0.000000 -0.087504 143 143 143 255
0.019532 0.033721 -0.000301 0.996164 0.000000 -0.087504 143 143 143 255
-0.019050 -0.029070 -0.000306 -0.000000 -0.995170 -0.098172 143 143 143 255
0.019034 -0.029070 -0.000306 -0.000000 -0.995170 -0.098172 143 143 143 255
-0.022221 -0.032631 0.035792 -0.000000 -0.995170 -0.098172 143 143 143 255
0.022205 -0.032631 0.035792 0.000000 -0.995170 -0.098172 143 143 143 255
0.022205 0.037780 0.035792 0.000000 0.995163 -0.098234 143 143 143 255
-0.000649 0.037152 0.029430 0.000000 0.995163 -0.098234 143 143 143 255
-0.022221 0.037780 0.035792 0.000000 0.995163 -0.098234 143 143 143 255
0.019034 0.034219 -0.000306 -0.000296 0.995123 -0.098640 143 143 143 255
0.010893 0.034633 0.003895 -0.000296 0.995123 -0.098640 143 143 143 255
0.014678 0.035216 0.009770 -0.000296 0.995123 -0.098640 143 143 143 255
-0.022221 0.037780 0.035792 0.000019 0.995170 -0.098170 143 143 143 255
-0.015108 0.035664 0.014343 0.000019 0.995170 -0.098170 143 143 143 255
-0.019050 0.034219 -0.000306 0.000019 0.995170 -0.098170 143 143 143 255
0.019034 0.034219 -0.000306 0.000904 0.995161 -0.098250 143 143 143 255
0.014840 0.035685 0.014500 0.000904 0.995161 -0.098250 143 143 143 255
0.022205 0.037780 0.035792 0.000904 0.995161 -0.098250 143 143 143 255
-0.024932 -0.034674 0.036243 -0.000000 0.000000 -1.000000 143 143 143 255
0.024926 -0.034669 0.036243 -0.000000 0.000000 -1.000000 143 143 143 255
0.002071 -0.039733 0.036243 -0.000000 0.000000 -1.000000 143 143 143 255
-0.001960 -0.039575 0.036243 -0.000000 -0.000000 -1.000000 143 143 143 255
0.000005 -0.047203 0.036243 0.000000 0.000000 -1.000000 143 143 143 255
0.000058 -0.043578 0.036243 0.000000 0.000000 -1.000000 143 143 143 255
-0.022979 0.038066 0.036243 -0.000000 -0.000000 -1.000000 143 143 143 255
-0.026152 0.044817 0.036243 -0.000000 -0.000000 -1.000000 143 143 143 255
0.022977 0.038034 0.036243 -0.000000 -0.000000 -1.000000 143 143 143 255
0.026136 0.044817 0.036243 -0.000000 -0.000000 -1.000000 143 143 143 255
0.026144 0.045323 0.044743 0.000000 -0.000000 1.000000 143 143 143 255
0.011242 0.043167 0.044743 0.000000 -0.000000 1.000000 143 143 143 255
0.026815 0.042351 0.044743 0.000000 -0.000000 1.000000 143 143 143 255
0.001435 -0.046329 0.044743 0.000000 0.000000 1.000000 143 143 143 255
-0.004232 -0.040410 0.044743 0.000000 0.000000 1.000000 143 143 143 255
-0.026310 -0.036171 0.044743 0.000000 0.000000 1.000000 143 143 143 255
0.002470 -0.037878 0.044743 0.000000 0.000000 1.000000 143 143 143 255
0.026293 -0.036172 0.044743 0.000000 0.000000 1.000000 143 143 143 255
0.026636 0.044817 0.045789 1.000000 0.000000 -0.000000 143 143 143 255
0.026636 -0.036241 0.044743 1.000000 0.000000 -0.000000 143 143 143 255
0.026636 0.044817 0.036743 1.000000 0.000000 -0.000000 143 143 143 255
0.026636 -0.036241 0.036743 1.000000 -0.000000 0.000000 143 143 143 255
0.011242 0.045317 0.042743 0.000072 1.000000 0.000177 143 143 143 255
0.025416 0.045315 0.049336 0.000072 1.000000 0.000177 143 143 143 255
0.026136 0.045317 0.036743 0.000072 1.000000 0.000177 143 143 143 255
0.011242 0.045317 0.042743 0.000026 1.000000 0.000063 143 143 143 255
0.026136 0.045317 0.036743 0.000026 1.000000 0.000063 143 143 143 255
-0.011258 0.045317 0.044743 0.000026 1.000000 0.000063 143 143 143 255
-0.011258 0.045317 0.044743 0.000000 1.000000 -0.000057 143 143 143 255
0.026136 0.045317 0.036743 0.000000 1.000000 -0.000057 143 143 143 255
-0.026152 0.045317 0.036743 0.000000 1.000000 -0.000057 143 143 143 255
-0.011258 0.045317 0.044743 -0.000032 1.000000 0.000002 143 143 143 255
-0.026152 0.045317 0.036743 -0.000032 1.000000 0.000002 143 143 143 255
-0.025401 0.045317 0.049370 -0.000032 1.000000 0.000002 143 143 143 255
-0.026652 0.044817 0.036743 -1.000000 0.000000 -0.000000 143 143 143 255
-0.026652 -0.036241 0.036743 -1.000000 0.000000 -0.000000 143 143 143 255
-0.026652 0.044817 0.045789 -1.000000 0.000000 -0.000000 143 143 143 255
-0.026652 -0.036241 0.044743 -1.000000 0.000000 0.000000 143 143 143 255
-0.002922 -0.046900 0.036743 -0.399188 -0.916869 -0.000000 143 143 143 255
-0.002922 -0.046900 0.044743 -0.399188 -0.916869 -0.000000 143 143 143 255
-0.026352 -0.036699 0.036743 -0.399188 -0.916869 -0.000000 143 143 143 255
-0.026352 -0.036699 0.044743 -0.399188 -0.916869 0.000000 143 143 143 255
0.026336 -0.036699 0.036743 0.399188 -0.916869 0.000000 143 143 143 255
0.026336 -0.036699 0.044743 0.399188 -0.916869 0.000000 143 143 143 255
0.002906 -0.046900 0.036743 0.399188 -0.916869 0.000000 143 143 143 255
0.002906 -0.046900 0.044743 0.399188 -0.916869 0.000000 143 143 143 255
-0.001720 -0.037995 0.042243 0.000000 -0.000000 1.000000 143 143 143 255
-0.004125 -0.042415 0.042243 0.000000 -0.000000 1.000000 143 143 143 255
-0.001816 -0.044542 0.042243 0.000000 -0.000000 1.000000 143 143 143 255
-0.011258 0.041017 0.044743 -0.000003 -1.000000 0.000065 143 143 143 255
-0.025852 0.041017 0.042243 -0.000003 -1.000000 0.000065 143 143 143 255
0.011242 0.041017 0.044076 -0.000003 -1.000000 0.000065 143 143 143 255
0.011242 0.041017 0.044076 0.000000 -1.000000 0.000000 143 143 143 255
-0.025852 0.041017 0.042243 0.000000 -1.000000 0.000000 143 143 143 255
0.025836 0.041017 0.042243 0.000000 -1.000000 0.000000 143 143 143 255
-0.025852 -0.035768 0.039743 0.000000 0.000000 1.000000 143 143 143 255
0.023792 -0.033710 0.039743 0.000000 0.000000 1.000000 143 143 143 255
-0.021739 -0.031661 0.039743 0.000000 0.000000 1.000000 143 143 143 255
-0.025852 0.041017 0.039743 0.000000 0.000000 1.000000 143 143 143 255
-0.021764 0.036801 0.039743 0.000000 0.000000 1.000000 143 143 143 255
0.025836 0.041017 0.039743 0.000000 -0.000000 1.000000 143 143 143 255
0.021748 0.036801 0.039743 0.000000 -0.000000 1.000000 143 143 143 255
0.016607 0.032845 0.000743 0.000000 -0.000000 1.000000 143 143 143 255
0.014083 0.025224 0.000743 0.000000 -0.000000 1.000000 143 143 143 255
0.018118 -0.027666 0.000743 0.000000 -0.000000 1.000000 143 143 143 255
-0.018134 -0.027666 0.000743 0.000000 0.000000 1.000000 143 143 143 255
-0.014168 0.025268 0.000743 0.000000 0.000000 1.000000 143 143 143 255
-0.016621 0.032830 0.000743 0.000000 0.000000 1.000000 143 143 143 255
-0.018134 -0.027666 0.000743 0.996165 0.000000 0.087494 143 143 143 255
-0.018134 0.032815 0.000743 0.996165 0.000000 0.087494 143 143 143 255
-0.021114 0.036162 0.034672 0.996165 0.000000 0.087494 143 143 143 255
-0.018134 -0.027666 0.000743 0.996165 -0.000000 0.087494 143 143 143 255
-0.021114 0.036162 0.034672 0.996165 -0.000000 0.087494 143 143 143 255
-0.021114 -0.031013 0.034672 0.996165 -0.000000 0.087494 143 143 143 255
0.018118 -0.027666 0.000743 -0.000000 0.995170 0.098171 143 143 143 255
-0.018134 -0.027666 0.000743 -0.000000 0.995170 0.098171 143 143 143 255
0.021098 -0.031013 0.034672 -0.000000 0.995170 0.098171 143 143 143 255
-0.021114 -0.031013 0.034672 0.000000 0.995170 0.098171 143 143 143 255
0.018118 0.032815 0.000743 -0.996165 0.000000 0.087494 143 143 143 255
0.018118 -0.027666 0.000743 -0.996165 0.000000 0.087494 143 143 143 255
0.021098 0.036162 0.034672 -0.996165 0.000000 0.087494 143 143 143 255
0.021098 -0.031013 0.034672 -0.996165 0.000000 0.087494 143 143 143 255
-0.020752 0.036317 0.036243 0.000000 -0.995254 0.097309 143 143 143 255
-0.000796 0.035553 0.028425 0.000000 -0.995254 0.097309 143 143 143 255
0.020736 0.036317 0.036243 0.000000 -0.995254 0.097309 143 143 143 255
-0.014958 0.034408 0.016896 -0.000746 -0.995192 0.097939 143 143 143 255
-0.021114 0.036162 0.034672 -0.000746 -0.995192 0.097939 143 143 143 255
-0.016612 0.032812 0.000670 -0.000746 -0.995192 0.097939 143 143 143 255
-0.020752 0.036317 0.042343 -0.000000 -1.000000 0.000000 143 143 143 255
-0.020752 0.036317 0.036243 -0.000000 -1.000000 0.000000 143 143 143 255
0.020736 0.036317 0.042343 -0.000000 -1.000000 0.000000 143 143 143 255
0.020736 0.036317 0.036243 0.000000 -1.000000 0.000000 143 143 143 255
0.021236 0.035817 0.042343 -1.000000 0.000000 0.000000 143 143 143 255
0.021236 0.035817 0.036243 -1.000000 0.000000 0.000000 143 143 143 255
0.021236 -0.030668 0.042343 -1.000000 0.000000 0.000000 143 143 143 255
0.021236 -0.030668 0.036243 -1.000000 0.000000 0.000000 143 143 143 255
0.020736 -0.031168 0.042343 -0.000000 1.000000 0.000000 143 143 143 255
0.020736 -0.031168 0.036243 -0.000000 1.000000 0.000000 143 143 143 255
-0.020752 -0.031168 0.042343 -0.000000 1.000000 0.000000 143 143 143 255
-0.020752 -0.031168 0.036243 0.000000 1.000000 -0.000000 143 143 143 255
-0.021252 -0.030668 0.042343 1.000000 0.000000 -0.000000 143 143 143 255
-0.021252 -0.030668 0.036243 1.000000 0.000000 -0.000000 143 143 143 255
-0.021252 0.035817 0.042343 1.000000 0.000000 -0.000000 143 143 143 255
-0.021252 0.035817 0.036243 1.000000 0.000000 -0.000000 143 143 143 255
-0.006694 0.046324 0.022282 0.000000 1.000000 0.000000 143 143 143 255
-0.009015 0.046324 0.026644 0.000000 1.000000 0.000000 143 143 143 255
0.002030 0.046324 0.024656 0.000000 1.000000 0.000000 143 143 143 255
0.001393 0.046324 0.003732 -0.000000 1.000000 0.000000 143 143 143 255
-0.004496 0.046324 0.000304 -0.000000 1.000000 0.000000 143 143 143 255
-0.010278 0.046324 0.006747 -0.000000 1.000000 0.000000 143 143 143 255
-0.010211 0.046324 0.011797 -0.000000 1.000000 0.000000 143 143 143 255
-0.014636 0.046324 0.010075 -0.000000 1.000000 0.000000 143 143 143 255
0.006291 0.046324 0.000592 0.000000 1.000000 -0.000000 143 143 143 255
0.011000 0.046324 0.008209 0.000000 1.000000 -0.000000 143 143 143 255
0.006688 0.046324 0.028030 0.000000 1.000000 0.000000 143 143 143 255
0.009864 0.046324 0.017868 0.000000 1.000000 0.000000 143 143 143 255
0.014773 0.046324 0.016796 -0.000000 1.000000 -0.000000 143 143 143 255
0.011464 0.046324 0.009605 0.000000 1.000000 -0.000000 143 143 143 255
0.015092 0.028324 0.014343 1.000000 0.000000 0.000000 143 143 143 255
0.015092 0.030553 0.000633 1.000000 0.000000 0.000000 143 143 143 255
0.015092 0.034157 0.014343 1.000000 0.000000 0.000000 143 143 143 255
-0.000647 0.024324 0.019456 0.000000 -1.000000 -0.000000 143 143 143 255
0.005207 0.024324 0.024480 0.000000 -1.000000 -0.000000 143 143 143 255
-0.005833 0.024324 0.024538 0.000000 -1.000000 -0.000000 143 143 143 255
0.011486 0.024324 0.014865 0.000000 -1.000000 0.000000 143 143 143 255
0.001642 0.024324 0.010462 0.000000 -1.000000 0.000000 143 143 143 255
0.011092 0.024324 0.000743 0.000000 -1.000000 0.000000 143 143 143 255
0.004904 0.024324 0.015662 0.000000 -1.000000 -0.000000 143 143 143 255
-0.011108 0.024324 0.000743 0.000000 -1.000000 0.000000 143 143 143 255
-0.004268 0.024324 0.012203 0.000000 -1.000000 -0.000000 143 143 143 255
-0.011124 0.024324 0.015766 0.000000 -1.000000 -0.000000 143 143 143 255
-0.005135 0.024324 0.015548 0.000000 -1.000000 0.000000 143 143 143 255
3 0 1 2
3 3 4 5
3 6 7 8
3 9 10 11
3 12 13 14
3 15 16 17
3 18 19 20
3 21 22 23
3 24 25 26
3 27 28 29
3 30 31 32
3 33 34 35
3 35 34 36
3 37 38 39
3 39 38 40
3 41 42 43
3 43 42 44
3 45 46 47
3 47 46 48
3 49 50 51
3 52 53 54
3 55 56 57
3 58 59 60
3 61 62 63
3 64 61 63
3 65 66 62
3 61 66 65
3 67 68 69
3 69 68 70
3 61 64 66
3 68 67 61
3 70 62 69
3 66 63 62
3 71 72 73
3 74 75 76
3 75 77 76
3 76 77 78
3 78 77 74
3 79 80 81
3 81 80 82
3 83 84 85
3 86 87 88
3 89 90 91
3 92 93 94
3 95 96 97
3 97 96 98
3 99 100 101
3 101 100 102
3 103 104 105
3 105 104 106
3 107 108 109
3 110 111 112
3 113 114 115
3 116 117 118
3 116 118 119
3 119 118 120
3 121 122 117
3 119 120 121
3 121 120 122
3 123 124 125
3 126 127 128
3 125 124 126
3 126 124 127
3 129 130 131
3 132 133 134
3 135 136 137
3 137 136 138
3 139 140 141
3 141 140 142
3 143 144 145
3 146 147 148
3 149 150 151
3 151 150 152
3 153 154 155
3 155 154 156
3 157 158 159
3 159 158 160
3 161 162 163
3 163 162 164
3 165 166 167
3 168 169 170
3 171 172 165
3 165 172 166
3 168 173 169
3 168 174 173
3 167 166 175
3 167 175 176
3 175 177 176
3 176 177 178
3 179 180 181
3 182 183 184
3 185 186 187
3 188 183 182
3 188 185 183
3 187 186 189
3 189 186 190
3 189 190 191
3 182 184 192
3 191 192 184
