ply
format ascii 1.0
comment Created by Blender 2.82 (sub 7) - www.blender.org, source file: ''
element vertex 589
property float x
property float y
property float z
property float nx
property float ny
property float nz
property uchar red
property uchar green
property uchar blue
property uchar alpha
element face 225
property list uchar uint vertex_indices
end_header
-0.012019 -0.019421 0.060041 -0.000000 -1.000000 0.000000 48 48 48 255
-0.003050 -0.019421 0.046977 -0.000000 -1.000000 0.000000 48 48 48 255
0.001483 -0.019421 0.051343 -0.000000 -1.000000 0.000000 48 48 48 255
-0.012019 -0.019421 0.060041 -0.000000 -1.000000 0.000000 48 48 48 255
0.001483 -0.019421 0.051343 -0.000000 -1.000000 0.000000 48 48 48 255
0.001976 -0.019421 0.056919 -0.000000 -1.000000 0.000000 48 48 48 255
-0.003105 -0.016189 0.062363 0.079525 0.996463 -0.027155 48 48 48 255
-0.006547 -0.016344 0.046595 0.079525 0.996463 -0.027155 48 48 48 255
-0.010524 -0.015621 0.061479 0.079525 0.996463 -0.027155 48 48 48 255
-0.003105 -0.016189 0.062363 -0.140661 0.989836 0.020975 48 48 48 255
-0.001267 -0.015625 0.048073 -0.140661 0.989836 0.020975 48 48 48 255
-0.006547 -0.016344 0.046595 -0.140661 0.989836 0.020975 48 48 48 255
-0.003557 0.015141 0.017407 0.306659 0.951807 0.004834 48 48 48 255
-0.004191 0.015196 0.046795 0.306659 0.951807 0.004834 48 48 48 255
0.001442 0.013528 0.017878 0.306659 0.951807 0.004834 48 48 48 255
-0.016214 0.011542 0.018489 -0.504641 0.863320 -0.003863 48 48 48 255
-0.012739 0.013715 0.050166 -0.504641 0.863320 -0.003863 48 48 48 255
-0.011467 0.014313 0.017642 -0.504641 0.863320 -0.003863 48 48 48 255
0.008958 -0.005959 0.019792 0.972335 -0.233592 0.000716 48 48 48 255
0.009775 -0.002455 0.053454 0.972335 -0.233592 0.000716 48 48 48 255
0.008680 -0.006986 0.062253 0.972335 -0.233592 0.000716 48 48 48 255
0.007633 -0.008849 0.019630 0.783031 -0.621932 0.007949 48 48 48 255
0.008680 -0.006986 0.062253 0.783031 -0.621932 0.007949 48 48 48 255
0.004086 -0.012770 0.062252 0.783031 -0.621932 0.007949 48 48 48 255
0.007633 -0.008849 0.019630 0.726372 -0.687297 -0.002779 48 48 48 255
0.004086 -0.012770 0.062252 0.726372 -0.687297 -0.002779 48 48 48 255
0.003240 -0.013486 0.018206 0.726372 -0.687297 -0.002779 48 48 48 255
0.003240 -0.013486 0.018206 0.441344 -0.897317 0.006110 48 48 48 255
0.004086 -0.012770 0.062252 0.441344 -0.897317 0.006110 48 48 48 255
-0.003091 -0.016300 0.062252 0.441344 -0.897317 0.006110 48 48 48 255
0.003240 -0.013486 0.018206 0.427673 -0.903926 0.003722 48 48 48 255
-0.003091 -0.016300 0.062252 0.427673 -0.903926 0.003722 48 48 48 255
-0.001632 -0.015794 0.017497 0.427673 -0.903926 0.003722 48 48 48 255
-0.001632 -0.015794 0.017497 0.104503 -0.994494 -0.007837 48 48 48 255
-0.003091 -0.016300 0.062252 0.104503 -0.994494 -0.007837 48 48 48 255
-0.006917 -0.016348 0.017325 0.104503 -0.994494 -0.007837 48 48 48 255
-0.006917 -0.016348 0.017325 -0.104926 -0.994430 0.009998 48 48 48 255
-0.003091 -0.016300 0.062252 -0.104926 -0.994430 0.009998 48 48 48 255
-0.011071 -0.015458 0.062252 -0.104926 -0.994430 0.009998 48 48 48 255
-0.006917 -0.016348 0.017325 -0.230391 -0.973096 -0.002025 48 48 48 255
-0.011071 -0.015458 0.062252 -0.230391 -0.973096 -0.002025 48 48 48 255
-0.012107 -0.015120 0.017704 -0.230391 -0.973096 -0.002025 48 48 48 255
-0.012107 -0.015120 0.017704 -0.518333 -0.855161 0.005566 48 48 48 255
-0.011071 -0.015458 0.062252 -0.518333 -0.855161 0.005566 48 48 48 255
-0.017342 -0.011657 0.062252 -0.518333 -0.855161 0.005566 48 48 48 255
-0.012107 -0.015120 0.017704 -0.539670 -0.841874 0.002026 48 48 48 255
-0.017342 -0.011657 0.062252 -0.539670 -0.841874 0.002026 48 48 48 255
-0.016612 -0.012230 0.018593 -0.539670 -0.841874 0.002026 48 48 48 255
-0.021531 -0.003728 0.062251 -0.884066 -0.467063 0.016704 48 48 48 255
-0.020232 -0.007289 0.031431 -0.884066 -0.467063 0.016704 48 48 48 255
-0.017342 -0.011657 0.062252 -0.884066 -0.467063 0.016704 48 48 48 255
-0.020774 0.005055 0.062252 -0.996074 0.085849 0.021613 48 48 48 255
-0.021733 0.000947 0.034372 -0.996074 0.085849 0.021613 48 48 48 255
-0.021531 -0.003728 0.062251 -0.996074 0.085849 0.021613 48 48 48 255
-0.016930 0.010923 0.062253 -0.836464 0.547948 0.008987 48 48 48 255
-0.019462 0.007598 0.029315 -0.836464 0.547948 0.008987 48 48 48 255
-0.020774 0.005055 0.062252 -0.836464 0.547948 0.008987 48 48 48 255
0.004835 0.011092 0.018616 0.657923 0.753034 0.008827 48 48 48 255
0.001514 0.013482 0.062256 0.657923 0.753034 0.008827 48 48 48 255
0.006850 0.008820 0.062252 0.657923 0.753034 0.008827 48 48 48 255
0.009007 0.004946 0.019670 0.932682 0.360410 0.014456 48 48 48 255
0.006850 0.008820 0.062252 0.932682 0.360410 0.014456 48 48 48 255
0.009948 0.000803 0.062249 0.932682 0.360410 0.014456 48 48 48 255
0.008680 -0.006986 0.062253 0.986217 -0.160529 0.040067 48 48 48 255
0.009775 -0.002455 0.053454 0.986217 -0.160529 0.040067 48 48 48 255
0.009948 0.000803 0.062249 0.986217 -0.160529 0.040067 48 48 48 255
0.001514 0.013482 0.062256 -0.061894 0.043334 -0.997142 48 48 48 255
-0.005738 0.018380 0.062919 -0.061894 0.043334 -0.997142 48 48 48 255
0.005007 0.018379 0.062252 -0.061894 0.043334 -0.997142 48 48 48 255
-0.027729 -0.000521 0.062252 -0.000098 0.000122 -1.000000 48 48 48 255
-0.020774 0.005055 0.062252 -0.000098 0.000122 -1.000000 48 48 48 255
-0.021531 -0.003728 0.062251 -0.000098 0.000122 -1.000000 48 48 48 255
0.005007 -0.019421 0.062252 0.000000 -0.000000 -1.000000 48 48 48 255
-0.003091 -0.016300 0.062252 0.000000 -0.000000 -1.000000 48 48 48 255
0.004086 -0.012770 0.062252 0.000000 -0.000000 -1.000000 48 48 48 255
0.015919 -0.000521 0.062252 0.000375 -0.000574 -1.000000 48 48 48 255
0.008680 -0.006986 0.062253 0.000375 -0.000574 -1.000000 48 48 48 255
0.009948 0.000803 0.062249 0.000375 -0.000574 -1.000000 48 48 48 255
-0.011071 -0.015458 0.062252 0.000000 0.000000 -1.000000 48 48 48 255
-0.016817 -0.019421 0.062252 0.000000 0.000000 -1.000000 48 48 48 255
-0.017342 -0.011657 0.062252 0.000000 0.000000 -1.000000 48 48 48 255
-0.016817 -0.019421 0.062252 -0.000000 0.000000 -1.000000 48 48 48 255
-0.009573 -0.014939 0.062252 -0.000000 0.000000 -1.000000 48 48 48 255
0.005007 -0.019421 0.062252 -0.000000 0.000000 -1.000000 48 48 48 255
0.036335 -0.004521 0.019552 0.003334 -0.010156 0.999943 48 48 48 255
0.023586 -0.002503 0.019615 0.003334 -0.010156 0.999943 48 48 48 255
0.024394 -0.007850 0.019558 0.003334 -0.010156 0.999943 48 48 48 255
0.007633 -0.008849 0.019630 0.005339 -0.017523 0.999832 48 48 48 255
0.024394 -0.007850 0.019558 0.005339 -0.017523 0.999832 48 48 48 255
0.009859 -0.002636 0.019727 0.005339 -0.017523 0.999832 48 48 48 255
0.024394 -0.007850 0.019558 0.008250 -0.009413 0.999922 48 48 48 255
0.023586 -0.002503 0.019615 0.008250 -0.009413 0.999922 48 48 48 255
0.009859 -0.002636 0.019727 0.008250 -0.009413 0.999922 48 48 48 255
0.032945 0.024924 0.008552 0.000000 0.000000 -1.000000 48 48 48 255
0.027995 0.020624 0.008552 0.000000 0.000000 -1.000000 48 48 48 255
0.009234 0.020168 0.008552 0.000000 0.000000 -1.000000 48 48 48 255
-0.020905 0.020624 0.008552 0.000000 0.000000 -1.000000 48 48 48 255
-0.038905 0.020624 0.008552 0.000000 0.000000 -1.000000 48 48 48 255
-0.043805 0.024924 0.008552 0.000000 0.000000 -1.000000 48 48 48 255
-0.001702 0.014916 0.008552 0.000000 0.000000 -1.000000 48 48 48 255
0.006917 0.009086 0.008552 0.000000 0.000000 -1.000000 48 48 48 255
-0.018837 -0.009665 0.008552 0.000000 0.000000 -1.000000 48 48 48 255
0.007095 -0.009413 0.008552 0.000000 0.000000 -1.000000 48 48 48 255
0.002365 -0.014217 0.008552 0.000000 0.000000 -1.000000 48 48 48 255
-0.018837 -0.009665 0.008552 0.000000 0.000000 -1.000000 48 48 48 255
0.007095 -0.009413 0.008552 -0.000000 0.000000 -1.000000 48 48 48 255
-0.020746 -0.021359 0.008552 0.000000 0.000000 -1.000000 48 48 48 255
0.032945 -0.025966 0.008552 0.000000 0.000000 -1.000000 48 48 48 255
-0.043805 -0.025966 0.008552 0.000000 0.000000 -1.000000 48 48 48 255
-0.021572 0.004345 0.008552 -0.000000 0.000000 -1.000000 48 48 48 255
-0.013089 0.013945 0.008552 -0.000000 0.000000 -1.000000 48 48 48 255
-0.022679 -0.021947 0.008552 -0.000000 0.000000 -1.000000 48 48 48 255
-0.013089 0.013945 0.008552 0.000000 0.000000 -1.000000 48 48 48 255
-0.045955 -0.011771 0.008552 -0.000000 -0.000000 -1.000000 48 48 48 255
-0.045955 0.010729 0.008552 -0.000000 -0.000000 -1.000000 48 48 48 255
-0.038905 -0.021666 0.008552 -0.000000 -0.000000 -1.000000 48 48 48 255
0.002365 -0.014217 0.008552 0.000000 0.000000 -1.000000 48 48 48 255
-0.009561 -0.016452 0.008552 0.000000 0.000000 -1.000000 48 48 48 255
0.006917 0.009086 0.008552 -0.000000 0.000000 -1.000000 48 48 48 255
0.011995 0.020624 0.008552 -0.000000 0.000000 -1.000000 48 48 48 255
0.011995 0.001379 0.008552 -0.000000 0.000000 -1.000000 48 48 48 255
0.011995 0.001379 0.008552 0.000000 0.000000 -1.000000 48 48 48 255
0.007095 -0.021666 0.008552 -0.000000 0.000000 -1.000000 48 48 48 255
0.011995 -0.021666 0.008552 0.000000 0.000000 -1.000000 48 48 48 255
-0.018905 0.008371 0.008552 0.000000 -0.000000 -1.000000 48 48 48 255
-0.022905 -0.002421 0.008552 0.000000 -0.000000 -1.000000 48 48 48 255
0.027995 -0.021666 0.008552 0.000000 0.000000 -1.000000 48 48 48 255
-0.043805 0.008424 0.019417 -1.000000 0.000000 0.000000 48 48 48 255
-0.043805 0.026143 0.012206 -1.000000 0.000000 0.000000 48 48 48 255
-0.043805 0.011124 0.008862 -1.000000 0.000000 0.000000 48 48 48 255
-0.043805 -0.011771 0.012552 -1.000000 -0.000000 0.000000 48 48 48 255
-0.043805 -0.001282 0.019551 -1.000000 -0.000000 0.000000 48 48 48 255
-0.043805 0.010729 0.012552 -1.000000 -0.000000 0.000000 48 48 48 255
-0.043805 -0.011771 0.012552 -1.000000 0.000000 -0.000000 48 48 48 255
-0.043805 -0.026566 0.010452 -1.000000 0.000000 -0.000000 48 48 48 255
-0.043805 -0.009470 0.019406 -1.000000 0.000000 -0.000000 48 48 48 255
0.045004 -0.000521 0.010452 0.000000 0.000000 -1.000000 48 48 48 255
0.041100 -0.001495 0.010452 0.000000 0.000000 -1.000000 48 48 48 255
0.037409 0.001707 0.010452 0.000000 0.000000 -1.000000 48 48 48 255
0.033265 0.025594 0.010452 0.000000 0.000000 -1.000000 48 48 48 255
0.033431 -0.026672 0.010452 0.000000 0.000000 -1.000000 48 48 48 255
0.037082 -0.002702 0.010452 -0.000000 0.000000 -1.000000 48 48 48 255
0.033751 0.026047 0.013926 0.000032 0.301835 0.953360 48 48 48 255
-0.043805 0.026049 0.013928 0.000032 0.301835 0.953360 48 48 48 255
-0.007076 0.015246 0.017347 0.000032 0.301835 0.953360 48 48 48 255
-0.043805 0.008424 0.019417 -0.001958 0.297346 0.954768 48 48 48 255
-0.018991 0.008414 0.019471 -0.001958 0.297346 0.954768 48 48 48 255
-0.043805 0.026049 0.013928 -0.001958 0.297346 0.954768 48 48 48 255
0.033751 0.026047 0.013926 0.017309 0.275125 0.961253 48 48 48 255
0.007626 0.007793 0.019621 0.017309 0.275125 0.961253 48 48 48 255
0.024369 0.006827 0.019596 0.017309 0.275125 0.961253 48 48 48 255
0.033751 -0.027093 0.013924 0.000034 -0.301646 0.953420 48 48 48 255
-0.006917 -0.016348 0.017325 0.000034 -0.301646 0.953420 48 48 48 255
-0.043805 -0.027086 0.013929 0.000034 -0.301646 0.953420 48 48 48 255
-0.016612 -0.012230 0.018593 -0.001584 -0.296892 0.954910 48 48 48 255
-0.043805 -0.009470 0.019406 -0.001584 -0.296892 0.954910 48 48 48 255
-0.043805 -0.027086 0.013929 -0.001584 -0.296892 0.954910 48 48 48 255
0.024394 -0.007850 0.019558 0.020334 -0.271809 0.962136 48 48 48 255
0.007633 -0.008849 0.019630 0.020334 -0.271809 0.962136 48 48 48 255
0.033751 -0.027093 0.013924 0.020334 -0.271809 0.962136 48 48 48 255
0.033751 -0.027093 0.013924 0.002275 -0.295532 0.955330 48 48 48 255
0.007633 -0.008849 0.019630 0.002275 -0.295532 0.955330 48 48 48 255
0.003240 -0.013486 0.018206 0.002275 -0.295532 0.955330 48 48 48 255
0.033751 0.026047 0.013926 0.295963 0.134510 0.945681 48 48 48 255
0.024369 0.006827 0.019596 0.295963 0.134510 0.945681 48 48 48 255
0.039484 0.006613 0.014896 0.295963 0.134510 0.945681 48 48 48 255
0.039427 -0.007637 0.014916 0.294112 -0.134053 0.946323 48 48 48 255
0.024394 -0.007850 0.019558 0.294112 -0.134053 0.946323 48 48 48 255
0.033751 -0.027093 0.013924 0.294112 -0.134053 0.946323 48 48 48 255
0.036913 -0.002918 0.015052 -0.000000 0.000000 1.000000 48 48 48 255
0.036205 0.000385 0.015052 -0.000000 0.000000 1.000000 48 48 48 255
0.034026 -0.000521 0.015052 -0.000000 0.000000 1.000000 48 48 48 255
0.041094 -0.001206 0.015052 0.000000 -0.000000 1.000000 48 48 48 255
0.043264 -0.000521 0.015052 0.000000 -0.000000 1.000000 48 48 48 255
0.040396 0.001884 0.015052 0.000000 -0.000000 1.000000 48 48 48 255
-0.038905 0.001514 0.017940 0.109661 -0.244559 -0.963413 48 48 48 255
-0.038905 0.020624 0.013089 0.109661 -0.244559 -0.963413 48 48 48 255
-0.031944 0.004982 0.017852 0.109661 -0.244559 -0.963413 48 48 48 255
-0.031944 0.004982 0.017852 -0.000000 -0.291295 -0.956633 48 48 48 255
-0.038905 0.020624 0.013089 -0.000000 -0.291295 -0.956633 48 48 48 255
-0.022905 0.020624 0.013089 -0.000000 -0.291295 -0.956633 48 48 48 255
-0.031944 0.004982 0.017852 -0.000097 -0.291244 -0.956649 48 48 48 255
-0.022905 0.020624 0.013089 -0.000097 -0.291244 -0.956649 48 48 48 255
-0.022905 0.004979 0.017852 -0.000097 -0.291244 -0.956649 48 48 48 255
-0.022905 0.001577 0.018177 -1.000000 0.000000 0.000000 48 48 48 255
-0.022905 0.020947 0.010673 -1.000000 0.000000 0.000000 48 48 48 255
-0.022905 0.001379 0.008552 -1.000000 0.000000 0.000000 48 48 48 255
-0.038905 0.001514 0.017940 1.000000 0.000000 -0.000000 48 48 48 255
-0.038905 0.001379 0.008552 1.000000 0.000000 -0.000000 48 48 48 255
-0.038905 0.020899 0.010716 1.000000 0.000000 -0.000000 48 48 48 255
-0.022905 -0.006021 0.017852 -0.006798 0.291238 -0.956627 48 48 48 255
-0.022905 -0.021666 0.013089 -0.006798 0.291238 -0.956627 48 48 48 255
-0.029766 -0.006214 0.017842 -0.006798 0.291238 -0.956627 48 48 48 255
-0.029766 -0.006214 0.017842 0.000000 0.294003 -0.955804 48 48 48 255
-0.022905 -0.021666 0.013089 0.000000 0.294003 -0.955804 48 48 48 255
-0.038905 -0.021666 0.013089 0.000000 0.294003 -0.955804 48 48 48 255
-0.029766 -0.006214 0.017842 0.085287 0.246506 -0.965381 48 48 48 255
-0.038905 -0.021666 0.013089 0.085287 0.246506 -0.965381 48 48 48 255
-0.038905 -0.002680 0.017937 0.085287 0.246506 -0.965381 48 48 48 255
-0.022905 -0.002619 0.018177 -1.000000 0.000000 0.000000 48 48 48 255
-0.022905 -0.002421 0.008552 -1.000000 0.000000 0.000000 48 48 48 255
-0.022905 -0.021989 0.010673 -1.000000 0.000000 0.000000 48 48 48 255
-0.038905 -0.002680 0.017937 1.000000 -0.000000 -0.000000 48 48 48 255
-0.038905 -0.021942 0.010715 1.000000 -0.000000 -0.000000 48 48 48 255
-0.038905 -0.002421 0.008552 1.000000 -0.000000 -0.000000 48 48 48 255
-0.010109 0.014916 0.014827 0.000004 -0.291276 -0.956639 48 48 48 255
-0.018905 0.020624 0.013089 0.000004 -0.291276 -0.956639 48 48 48 255
0.005391 0.011794 0.015778 0.000004 -0.291276 -0.956639 48 48 48 255
0.005391 0.011794 0.015778 -0.000000 -0.291286 -0.956636 48 48 48 255
-0.018905 0.020624 0.013089 -0.000000 -0.291286 -0.956636 48 48 48 255
0.007095 0.020624 0.013089 -0.000000 -0.291286 -0.956636 48 48 48 255
-0.010109 0.014916 0.014827 -0.000000 -0.291282 -0.956637 48 48 48 255
-0.018576 0.009231 0.016558 -0.000000 -0.291282 -0.956637 48 48 48 255
-0.018905 0.020624 0.013089 -0.000000 -0.291282 -0.956637 48 48 48 255
0.007095 0.008371 0.016819 -0.999733 0.006730 0.022108 48 48 48 255
0.007095 0.020624 0.013089 -0.999733 0.006730 0.022108 48 48 48 255
0.006917 0.009086 0.008552 -0.999733 0.006730 0.022108 48 48 48 255
-0.018905 0.008371 0.008552 0.998960 0.015830 -0.042752 48 48 48 255
-0.018905 0.020624 0.013089 0.998960 0.015830 -0.042752 48 48 48 255
-0.018576 0.009231 0.016558 0.998960 0.015830 -0.042752 48 48 48 255
-0.006308 -0.017169 0.014455 0.000000 0.290720 -0.956808 48 48 48 255
0.007095 -0.021666 0.013089 0.000000 0.290720 -0.956808 48 48 48 255
-0.018905 -0.021666 0.013089 0.000000 0.290720 -0.956808 48 48 48 255
-0.018905 -0.021666 0.013089 -0.000187 0.291201 -0.956662 48 48 48 255
-0.018853 -0.009734 0.016721 -0.000187 0.291201 -0.956662 48 48 48 255
-0.006308 -0.017169 0.014455 -0.000187 0.291201 -0.956662 48 48 48 255
-0.006308 -0.017169 0.014455 0.000203 0.291273 -0.956640 48 48 48 255
0.006917 -0.010128 0.016602 0.000203 0.291273 -0.956640 48 48 48 255
0.007095 -0.021666 0.013089 0.000203 0.291273 -0.956640 48 48 48 255
0.007095 -0.009413 0.008552 -0.999756 0.000000 -0.022106 48 48 48 255
0.007095 -0.021666 0.008552 -0.999756 0.000000 -0.022106 48 48 48 255
0.006917 -0.010128 0.016602 -0.999756 0.000000 -0.022106 48 48 48 255
-0.018853 -0.009734 0.016721 0.999982 -0.005666 0.001911 48 48 48 255
-0.018905 -0.021666 0.008552 0.999982 -0.005666 0.001911 48 48 48 255
-0.018837 -0.009665 0.008552 0.999982 -0.005666 0.001911 48 48 48 255
0.027995 -0.006021 0.017852 0.001189 0.291244 -0.956648 48 48 48 255
0.027995 -0.021666 0.013089 0.001189 0.291244 -0.956648 48 48 48 255
0.018721 -0.005970 0.017856 0.001189 0.291244 -0.956648 48 48 48 255
0.018721 -0.005970 0.017856 0.000000 0.290601 -0.956844 48 48 48 255
0.027995 -0.021666 0.013089 0.000000 0.290601 -0.956844 48 48 48 255
0.011995 -0.021666 0.013089 0.000000 0.290601 -0.956844 48 48 48 255
0.018721 -0.005970 0.017856 0.108702 0.245942 -0.963170 48 48 48 255
0.011995 -0.021666 0.013089 0.108702 0.245942 -0.963170 48 48 48 255
0.011995 -0.002680 0.017937 0.108702 0.245942 -0.963170 48 48 48 255
0.027995 -0.002619 0.018177 -1.000000 -0.000000 0.000000 48 48 48 255
0.027995 -0.002421 0.008552 -1.000000 -0.000000 0.000000 48 48 48 255
0.027995 -0.021989 0.010673 -1.000000 -0.000000 0.000000 48 48 48 255
0.011995 -0.002680 0.017937 1.000000 0.000000 0.000000 48 48 48 255
0.011995 -0.021942 0.010715 1.000000 0.000000 0.000000 48 48 48 255
0.011995 -0.002421 0.008552 1.000000 0.000000 0.000000 48 48 48 255
0.011995 0.001514 0.017940 0.109661 -0.244559 -0.963413 48 48 48 255
0.011995 0.020624 0.013089 0.109661 -0.244559 -0.963413 48 48 48 255
0.018956 0.004982 0.017852 0.109661 -0.244559 -0.963413 48 48 48 255
0.018956 0.004982 0.017852 -0.000000 -0.291295 -0.956633 48 48 48 255
0.011995 0.020624 0.013089 -0.000000 -0.291295 -0.956633 48 48 48 255
0.027995 0.020624 0.013089 -0.000000 -0.291295 -0.956633 48 48 48 255
0.018956 0.004982 0.017852 -0.000097 -0.291244 -0.956649 48 48 48 255
0.027995 0.020624 0.013089 -0.000097 -0.291244 -0.956649 48 48 48 255
0.027995 0.004979 0.017852 -0.000097 -0.291244 -0.956649 48 48 48 255
0.027995 0.001577 0.018177 -1.000000 0.000000 0.000000 48 48 48 255
0.027995 0.020947 0.010673 -1.000000 0.000000 0.000000 48 48 48 255
0.027995 0.001379 0.008552 -1.000000 0.000000 0.000000 48 48 48 255
0.011995 0.001514 0.017940 1.000000 -0.000000 0.000000 48 48 48 255
0.011995 0.001379 0.008552 1.000000 -0.000000 0.000000 48 48 48 255
0.011995 0.020899 0.010716 1.000000 -0.000000 0.000000 48 48 48 255
-0.025568 0.001143 0.008552 0.975394 0.207626 -0.074146 48 48 48 255
-0.025489 -0.002335 -0.000148 0.975394 0.207626 -0.074146 48 48 48 255
-0.026740 0.003542 -0.000148 0.975394 0.207626 -0.074146 48 48 48 255
-0.031711 0.005013 -0.000148 0.283698 0.958711 -0.019722 48 48 48 255
-0.027861 0.004244 0.017852 0.283698 0.958711 -0.019722 48 48 48 255
-0.026740 0.003542 -0.000148 0.283698 0.958711 -0.019722 48 48 48 255
-0.035866 -0.003329 0.017852 -0.426875 -0.902761 0.052916 48 48 48 255
-0.034629 -0.004969 -0.000148 -0.426875 -0.902761 0.052916 48 48 48 255
-0.029766 -0.006214 0.017842 -0.426875 -0.902761 0.052916 48 48 48 255
-0.029766 -0.006214 0.017842 -0.167599 -0.985589 -0.022903 48 48 48 255
-0.034629 -0.004969 -0.000148 -0.167599 -0.985589 -0.022903 48 48 48 255
-0.029160 -0.005899 -0.000148 -0.167599 -0.985589 -0.022903 48 48 48 255
-0.029766 -0.006214 0.017842 0.696532 -0.717443 0.010901 48 48 48 255
-0.029160 -0.005899 -0.000148 0.696532 -0.717443 0.010901 48 48 48 255
-0.025489 -0.002335 -0.000148 0.696532 -0.717443 0.010901 48 48 48 255
-0.029766 -0.006214 0.017842 0.664814 -0.747003 -0.003014 48 48 48 255
-0.025489 -0.002335 -0.000148 0.664814 -0.747003 -0.003014 48 48 48 255
-0.025740 -0.002631 0.017852 0.664814 -0.747003 -0.003014 48 48 48 255
0.024036 -0.004634 -0.000148 0.967049 -0.245934 -0.065819 48 48 48 255
0.025510 0.001162 -0.000148 0.967049 -0.245934 -0.065819 48 48 48 255
0.025195 -0.002405 0.008552 0.967049 -0.245934 -0.065819 48 48 48 255
0.014839 -0.002887 0.017852 -0.727322 -0.685853 -0.024676 48 48 48 255
0.014353 -0.001724 -0.000148 -0.727322 -0.685853 -0.024676 48 48 48 255
0.018405 -0.006021 -0.000148 -0.727322 -0.685853 -0.024676 48 48 48 255
0.014839 -0.002887 0.017852 -0.621866 -0.783014 0.013133 48 48 48 255
0.018405 -0.006021 -0.000148 -0.621866 -0.783014 0.013133 48 48 48 255
0.018721 -0.005970 0.017856 -0.621866 -0.783014 0.013133 48 48 48 255
0.022423 -0.005562 0.017852 0.239069 -0.970581 -0.028616 48 48 48 255
0.018405 -0.006021 -0.000148 0.239069 -0.970581 -0.028616 48 48 48 255
0.024036 -0.004634 -0.000148 0.239069 -0.970581 -0.028616 48 48 48 255
0.018655 -0.001815 -0.001648 0.000000 -0.000000 -1.000000 48 48 48 255
0.018045 0.000132 -0.001648 0.000000 -0.000000 -1.000000 48 48 48 255
0.019196 0.001222 -0.001648 0.000000 -0.000000 -1.000000 48 48 48 255
-0.018853 -0.009734 0.016721 -0.651981 -0.758196 -0.007681 48 48 48 255
-0.018837 -0.009665 0.008552 -0.651981 -0.758196 -0.007681 48 48 48 255
-0.012541 -0.015079 0.008552 -0.651981 -0.758196 -0.007681 48 48 48 255
-0.018853 -0.009734 0.016721 -0.593996 -0.801785 0.065643 48 48 48 255
-0.012541 -0.015079 0.008552 -0.593996 -0.801785 0.065643 48 48 48 255
-0.010665 -0.015955 0.014828 -0.593996 -0.801785 0.065643 48 48 48 255
-0.010665 -0.015955 0.014828 -0.153990 -0.983846 -0.091294 48 48 48 255
-0.012541 -0.015079 0.008552 -0.153990 -0.983846 -0.091294 48 48 48 255
-0.004855 -0.016282 0.008552 -0.153990 -0.983846 -0.091294 48 48 48 255
-0.010665 -0.015955 0.014828 0.046205 -0.994444 0.094588 48 48 48 255
-0.004855 -0.016282 0.008552 0.046205 -0.994444 0.094588 48 48 48 255
-0.000549 -0.015471 0.014975 0.046205 -0.994444 0.094588 48 48 48 255
-0.000549 -0.015471 0.014975 0.274442 -0.959549 -0.062829 48 48 48 255
-0.004855 -0.016282 0.008552 0.274442 -0.959549 -0.062829 48 48 48 255
0.002365 -0.014217 0.008552 0.274442 -0.959549 -0.062829 48 48 48 255
-0.000549 -0.015471 0.014975 0.565261 -0.819248 0.096502 48 48 48 255
0.002365 -0.014217 0.008552 0.565261 -0.819248 0.096502 48 48 48 255
0.006917 -0.010128 0.016602 0.565261 -0.819248 0.096502 48 48 48 255
0.006917 -0.010128 0.016602 0.711803 -0.700838 -0.046509 48 48 48 255
0.002365 -0.014217 0.008552 0.711803 -0.700838 -0.046509 48 48 48 255
0.007095 -0.009413 0.008552 0.711803 -0.700838 -0.046509 48 48 48 255
0.007095 0.008371 0.016819 0.683751 0.728118 0.048252 48 48 48 255
0.006917 0.009086 0.008552 0.683751 0.728118 0.048252 48 48 48 255
0.001279 0.013945 0.015123 0.683751 0.728118 0.048252 48 48 48 255
0.001279 0.013945 0.015123 0.555474 0.821206 -0.130646 48 48 48 255
0.006917 0.009086 0.008552 0.555474 0.821206 -0.130646 48 48 48 255
-0.001702 0.014916 0.008552 0.555474 0.821206 -0.130646 48 48 48 255
0.001279 0.013945 0.015123 0.081625 0.990645 0.109358 48 48 48 255
-0.001702 0.014916 0.008552 0.081625 0.990645 0.109358 48 48 48 255
-0.010109 0.014916 0.014827 0.081625 0.990645 0.109358 48 48 48 255
-0.010109 0.014916 0.014827 -0.084419 0.989991 -0.113101 48 48 48 255
-0.001702 0.014916 0.008552 -0.084419 0.989991 -0.113101 48 48 48 255
-0.013089 0.013945 0.008552 -0.084419 0.989991 -0.113101 48 48 48 255
-0.010109 0.014916 0.014827 -0.535330 0.835348 0.124966 48 48 48 255
-0.013089 0.013945 0.008552 -0.535330 0.835348 0.124966 48 48 48 255
-0.018576 0.009231 0.016558 -0.535330 0.835348 0.124966 48 48 48 255
-0.018576 0.009231 0.016558 -0.691094 0.721098 -0.049060 48 48 48 255
-0.013089 0.013945 0.008552 -0.691094 0.721098 -0.049060 48 48 48 255
-0.018905 0.008371 0.008552 -0.691094 0.721098 -0.049060 48 48 48 255
-0.019047 -0.009296 0.027425 -0.009723 -0.999752 0.020039 48 48 48 255
-0.043805 -0.009030 0.028683 -0.009723 -0.999752 0.020039 48 48 48 255
-0.018982 -0.009456 0.019474 -0.009723 -0.999752 0.020039 48 48 48 255
-0.018982 -0.009456 0.019474 0.000434 -0.998877 0.047376 48 48 48 255
-0.043805 -0.009030 0.028683 0.000434 -0.998877 0.047376 48 48 48 255
-0.043805 -0.009470 0.019406 0.000434 -0.998877 0.047376 48 48 48 255
-0.043805 0.005280 0.032278 -0.011010 0.829467 0.558447 48 48 48 255
-0.019462 0.007598 0.029315 -0.011010 0.829467 0.558447 48 48 48 255
-0.043805 0.008105 0.028082 -0.011010 0.829467 0.558447 48 48 48 255
-0.021715 -0.001784 0.034350 -0.019593 -0.145805 0.989119 48 48 48 255
-0.043805 0.000947 0.034315 -0.019593 -0.145805 0.989119 48 48 48 255
-0.043805 -0.004609 0.033496 -0.019593 -0.145805 0.989119 48 48 48 255
-0.043805 -0.009030 0.028683 -0.024461 -0.736241 0.676277 48 48 48 255
-0.020232 -0.007289 0.031431 -0.024461 -0.736241 0.676277 48 48 48 255
-0.043805 -0.004609 0.033496 -0.024461 -0.736241 0.676277 48 48 48 255
-0.043805 0.008424 0.019417 0.000323 0.999323 0.036790 48 48 48 255
-0.043805 0.008105 0.028082 0.000323 0.999323 0.036790 48 48 48 255
-0.018991 0.008414 0.019471 0.000323 0.999323 0.036790 48 48 48 255
-0.018991 0.008414 0.019471 -0.009712 0.999922 0.007896 48 48 48 255
-0.043805 0.008105 0.028082 -0.009712 0.999922 0.007896 48 48 48 255
-0.018967 0.008360 0.026339 -0.009712 0.999922 0.007896 48 48 48 255
-0.020620 -0.006158 0.027608 0.011034 0.768786 -0.639411 48 48 48 255
-0.043805 -0.006454 0.026852 0.011034 0.768786 -0.639411 48 48 48 255
-0.043805 -0.003113 0.030869 0.011034 0.768786 -0.639411 48 48 48 255
-0.020479 0.005466 0.026006 0.015883 -0.958347 -0.285164 48 48 48 255
-0.043805 0.004118 0.029237 0.015883 -0.958347 -0.285164 48 48 48 255
-0.043805 0.005507 0.024569 0.015883 -0.958347 -0.285164 48 48 48 255
-0.020479 0.005466 0.026006 -0.020928 -0.949651 0.312610 48 48 48 255
-0.043805 0.005507 0.024569 -0.020928 -0.949651 0.312610 48 48 48 255
-0.021061 0.003931 0.021304 -0.020928 -0.949651 0.312610 48 48 48 255
-0.021061 0.003931 0.021304 0.025018 -0.820901 0.570522 48 48 48 255
-0.043805 0.005507 0.024569 0.025018 -0.820901 0.570522 48 48 48 255
-0.043805 0.002522 0.020274 0.025018 -0.820901 0.570522 48 48 48 255
-0.043805 -0.006454 0.026852 0.020596 0.972691 0.231186 48 48 48 255
-0.020657 -0.006084 0.023233 0.020596 0.972691 0.231186 48 48 48 255
-0.043805 -0.005210 0.021618 0.020596 0.972691 0.231186 48 48 48 255
-0.016817 0.018379 0.062252 -0.866024 0.500003 0.000000 48 48 48 255
-0.027729 -0.000521 0.062252 -0.866024 0.500003 0.000000 48 48 48 255
-0.016817 0.018379 0.076552 -0.866024 0.500003 0.000000 48 48 48 255
-0.027729 -0.000521 0.076552 -0.866024 0.500003 0.000000 48 48 48 255
0.005007 0.018379 0.076552 0.000093 1.000000 -0.000000 48 48 48 255
0.005007 0.018379 0.062252 0.000093 1.000000 -0.000000 48 48 48 255
-0.005738 0.018380 0.062919 0.000093 1.000000 -0.000000 48 48 48 255
-0.016817 0.018379 0.062252 -0.000090 1.000000 0.000000 48 48 48 255
-0.016817 0.018379 0.076552 -0.000090 1.000000 0.000000 48 48 48 255
-0.005738 0.018380 0.062919 -0.000090 1.000000 0.000000 48 48 48 255
0.005007 0.018379 0.076552 0.000000 1.000000 0.000073 48 48 48 255
-0.005738 0.018380 0.062919 0.000000 1.000000 0.000073 48 48 48 255
-0.016817 0.018379 0.076552 0.000000 1.000000 0.000073 48 48 48 255
0.015919 -0.000521 0.062252 0.866024 0.500003 0.000000 48 48 48 255
0.005007 0.018379 0.062252 0.866024 0.500003 0.000000 48 48 48 255
0.015919 -0.000521 0.076552 0.866024 0.500003 0.000000 48 48 48 255
0.005007 0.018379 0.076552 0.866024 0.500003 0.000000 48 48 48 255
0.005007 -0.019421 0.062252 0.866024 -0.500003 0.000000 48 48 48 255
0.015919 -0.000521 0.062252 0.866024 -0.500003 0.000000 48 48 48 255
0.005007 -0.019421 0.076552 0.866024 -0.500003 0.000000 48 48 48 255
0.015919 -0.000521 0.076552 0.866024 -0.500003 0.000000 48 48 48 255
-0.016817 -0.019421 0.062252 -0.000000 -1.000000 -0.000000 48 48 48 255
0.005007 -0.019421 0.062252 -0.000000 -1.000000 -0.000000 48 48 48 255
-0.016817 -0.019421 0.076552 -0.000000 -1.000000 -0.000000 48 48 48 255
0.005007 -0.019421 0.076552 -0.000000 -1.000000 -0.000000 48 48 48 255
-0.027729 -0.000521 0.062252 -0.866024 -0.500003 0.000000 48 48 48 255
-0.016817 -0.019421 0.062252 -0.866024 -0.500003 0.000000 48 48 48 255
-0.027729 -0.000521 0.076552 -0.866024 -0.500003 0.000000 48 48 48 255
-0.016817 -0.019421 0.076552 -0.866024 -0.500003 -0.000000 48 48 48 255
-0.005489 0.015665 0.076552 0.000000 0.000000 1.000000 48 48 48 255
0.005460 0.010775 0.076552 0.000000 0.000000 1.000000 48 48 48 255
0.005007 0.018379 0.076552 0.000000 0.000000 1.000000 48 48 48 255
0.010450 -0.003216 0.076552 0.000000 0.000000 1.000000 48 48 48 255
0.015919 -0.000521 0.076552 0.000000 0.000000 1.000000 48 48 48 255
0.005007 -0.019421 0.076552 0.000000 0.000000 1.000000 48 48 48 255
0.001568 -0.014696 0.076552 -0.000000 0.000000 1.000000 48 48 48 255
-0.007523 -0.016337 0.076552 -0.000000 -0.000000 1.000000 48 48 48 255
-0.017406 -0.011918 0.076552 -0.000000 -0.000000 1.000000 48 48 48 255
-0.016817 -0.019421 0.076552 -0.000000 -0.000000 1.000000 48 48 48 255
-0.027729 -0.000521 0.076552 0.000000 0.000000 1.000000 48 48 48 255
-0.016734 -0.017484 0.076552 0.000000 0.000000 1.000000 48 48 48 255
-0.021927 -0.000812 0.076552 0.000000 0.000000 1.000000 48 48 48 255
-0.017780 0.010486 0.076552 -0.000000 0.000000 1.000000 48 48 48 255
-0.016817 0.018379 0.076552 0.000000 0.000000 1.000000 48 48 48 255
-0.013763 -0.010253 0.098552 -0.000001 -0.000001 1.000000 48 48 48 255
-0.019468 0.004238 0.098552 -0.000001 -0.000001 1.000000 48 48 48 255
-0.021300 -0.004083 0.098552 -0.000001 -0.000001 1.000000 48 48 48 255
-0.013763 -0.010253 0.098552 -0.000002 -0.000001 1.000000 48 48 48 255
-0.021300 -0.004083 0.098552 -0.000002 -0.000001 1.000000 48 48 48 255
-0.016804 -0.012495 0.098552 -0.000002 -0.000001 1.000000 48 48 48 255
0.005068 0.008802 0.098552 0.000000 0.000000 1.000000 48 48 48 255
0.005750 -0.003931 0.098552 0.000000 0.000000 1.000000 48 48 48 255
0.010359 -0.004075 0.098552 0.000000 0.000000 1.000000 48 48 48 255
-0.010524 -0.011437 0.098552 0.000000 0.000000 1.000000 48 48 48 255
-0.006909 -0.016377 0.098552 0.000000 0.000000 1.000000 48 48 48 255
-0.001626 -0.011707 0.098552 0.000000 0.000000 1.000000 48 48 48 255
-0.000316 -0.013258 0.098552 0.000000 0.000000 1.000000 48 48 48 255
-0.006909 -0.016377 0.098552 0.177633 -0.984074 -0.006747 48 48 48 255
-0.007523 -0.016337 0.076552 0.177633 -0.984074 -0.006747 48 48 48 255
0.001568 -0.014696 0.076552 0.177633 -0.984074 -0.006747 48 48 48 255
-0.006909 -0.016377 0.098552 0.189528 -0.981873 -0.001995 48 48 48 255
0.001568 -0.014696 0.076552 0.189528 -0.981873 -0.001995 48 48 48 255
0.000950 -0.014860 0.098552 0.189528 -0.981873 -0.001995 48 48 48 255
0.000950 -0.014860 0.098552 0.690061 -0.723616 0.013990 48 48 48 255
0.001568 -0.014696 0.076552 0.690061 -0.723616 0.013990 48 48 48 255
0.008735 -0.007436 0.098552 0.690061 -0.723616 0.013990 48 48 48 255
0.008735 -0.007436 0.098552 0.715310 -0.698803 -0.002423 48 48 48 255
0.001568 -0.014696 0.076552 0.715310 -0.698803 -0.002423 48 48 48 255
0.008130 -0.007979 0.076552 0.715310 -0.698803 -0.002423 48 48 48 255
0.008735 -0.007436 0.098552 0.978602 -0.204596 -0.021862 48 48 48 255
0.008130 -0.007979 0.076552 0.978602 -0.204596 -0.021862 48 48 48 255
0.010034 0.001128 0.076552 0.978602 -0.204596 -0.021862 48 48 48 255
0.008735 -0.007436 0.098552 0.993947 -0.108630 0.016401 48 48 48 255
0.010034 0.001128 0.076552 0.993947 -0.108630 0.016401 48 48 48 255
0.009736 0.001723 0.098552 0.993947 -0.108630 0.016401 48 48 48 255
0.009736 0.001723 0.098552 0.918747 0.394842 0.001766 48 48 48 255
0.010034 0.001128 0.076552 0.918747 0.394842 0.001766 48 48 48 255
0.005970 0.010486 0.098552 0.918747 0.394842 0.001766 48 48 48 255
0.005970 0.010486 0.098552 0.903473 0.428370 -0.015317 48 48 48 255
0.010034 0.001128 0.076552 0.903473 0.428370 -0.015317 48 48 48 255
0.005460 0.010775 0.076552 0.903473 0.428370 -0.015317 48 48 48 255
0.005970 0.010486 0.098552 0.407792 0.913071 0.002541 48 48 48 255
0.005460 0.010775 0.076552 0.407792 0.913071 0.002541 48 48 48 255
-0.005489 0.015665 0.076552 0.407792 0.913071 0.002541 48 48 48 255
0.005970 0.010486 0.098552 0.415987 0.909367 -0.002599 48 48 48 255
-0.005489 0.015665 0.076552 0.415987 0.909367 -0.002599 48 48 48 255
-0.004934 0.015474 0.098552 0.415987 0.909367 -0.002599 48 48 48 255
-0.004934 0.015474 0.098552 -0.245998 0.969160 0.014620 48 48 48 255
-0.005489 0.015665 0.076552 -0.245998 0.969160 0.014620 48 48 48 255
-0.013952 0.013185 0.098552 -0.245998 0.969160 0.014620 48 48 48 255
-0.013952 0.013185 0.098552 -0.387901 0.920580 -0.045444 48 48 48 255
-0.005489 0.015665 0.076552 -0.387901 0.920580 -0.045444 48 48 48 255
-0.017780 0.010486 0.076552 -0.387901 0.920580 -0.045444 48 48 48 255
-0.013952 0.013185 0.098552 -0.748154 0.661714 0.048998 48 48 48 255
-0.017780 0.010486 0.076552 -0.748154 0.661714 0.048998 48 48 48 255
-0.021079 0.005127 0.098552 -0.748154 0.661714 0.048998 48 48 48 255
-0.021079 0.005127 0.098552 -0.937246 0.344022 -0.056744 48 48 48 255
-0.017780 0.010486 0.076552 -0.937246 0.344022 -0.056744 48 48 48 255
-0.021927 -0.000812 0.076552 -0.937246 0.344022 -0.056744 48 48 48 255
-0.021079 0.005127 0.098552 -0.999199 0.023976 0.032042 48 48 48 255
-0.021927 -0.000812 0.076552 -0.999199 0.023976 0.032042 48 48 48 255
-0.021300 -0.004083 0.098552 -0.999199 0.023976 0.032042 48 48 48 255
-0.021300 -0.004083 0.098552 -0.925792 -0.376869 -0.029648 48 48 48 255
-0.021927 -0.000812 0.076552 -0.925792 -0.376869 -0.029648 48 48 48 255
-0.017406 -0.011918 0.076552 -0.925792 -0.376869 -0.029648 48 48 48 255
-0.021300 -0.004083 0.098552 -0.881874 -0.471339 0.011769 48 48 48 255
-0.017406 -0.011918 0.076552 -0.881874 -0.471339 0.011769 48 48 48 255
-0.016804 -0.012495 0.098552 -0.881874 -0.471339 0.011769 48 48 48 255
-0.016804 -0.012495 0.098552 -0.408152 -0.912824 -0.012772 48 48 48 255
-0.017406 -0.011918 0.076552 -0.408152 -0.912824 -0.012772 48 48 48 255
-0.007523 -0.016337 0.076552 -0.408152 -0.912824 -0.012772 48 48 48 255
-0.016804 -0.012495 0.098552 -0.365205 -0.930888 0.008500 48 48 48 255
-0.007523 -0.016337 0.076552 -0.365205 -0.930888 0.008500 48 48 48 255
-0.006909 -0.016377 0.098552 -0.365205 -0.930888 0.008500 48 48 48 255
0.014733 0.001367 0.028518 0.010937 0.999745 0.019751 48 48 48 255
0.023601 0.001446 0.019609 0.010937 0.999745 0.019751 48 48 48 255
0.009857 0.001594 0.019728 0.010937 0.999745 0.019751 48 48 48 255
0.009767 0.001558 0.052965 0.044258 0.999019 0.001202 48 48 48 255
0.014696 0.001345 0.048510 0.044258 0.999019 0.001202 48 48 48 255
0.009857 0.001594 0.019728 0.044258 0.999019 0.001202 48 48 48 255
0.023586 -0.002503 0.019615 0.009852 -0.999747 0.020248 48 48 48 255
0.014734 -0.002410 0.028514 0.009852 -0.999747 0.020248 48 48 48 255
0.009859 -0.002636 0.019727 0.009852 -0.999747 0.020248 48 48 48 255
0.014734 -0.002410 0.028514 0.036497 -0.999319 0.005454 48 48 48 255
0.009775 -0.002455 0.053454 0.036497 -0.999319 0.005454 48 48 48 255
0.009859 -0.002636 0.019727 0.036497 -0.999319 0.005454 48 48 48 255
-0.005735 0.011251 0.012552 0.000000 0.000000 1.000000 48 48 48 255
-0.002207 -0.011912 0.012552 0.000000 0.000000 1.000000 48 48 48 255
0.003971 -0.006898 0.012552 0.000000 0.000000 1.000000 48 48 48 255
-0.005735 0.011251 0.012552 0.000000 -0.000000 1.000000 48 48 48 255
-0.011048 -0.011200 0.012552 0.000000 -0.000000 1.000000 48 48 48 255
-0.002207 -0.011912 0.012552 0.000000 -0.000000 1.000000 48 48 48 255
-0.005735 0.011251 0.012552 0.000000 -0.000000 1.000000 48 48 48 255
-0.016615 -0.005598 0.012552 0.000000 -0.000000 1.000000 48 48 48 255
-0.011048 -0.011200 0.012552 0.000000 -0.000000 1.000000 48 48 48 255
-0.017263 0.003280 0.012552 0.000000 0.000000 1.000000 48 48 48 255
-0.016615 -0.005598 0.012552 0.000000 0.000000 1.000000 48 48 48 255
-0.005735 0.011251 0.012552 0.000000 0.000000 1.000000 48 48 48 255
-0.005735 0.011251 0.012552 0.256909 -0.966400 0.008282 48 48 48 255
-0.009279 0.010644 0.051660 0.256909 -0.966400 0.008282 48 48 48 255
-0.011953 0.009598 0.012552 0.256909 -0.966400 0.008282 48 48 48 255
-0.000547 0.009875 0.098552 -0.247606 -0.968840 -0.006410 48 48 48 255
-0.005888 0.011240 0.098552 -0.247606 -0.968840 -0.006410 48 48 48 255
-0.002774 0.010712 0.058068 -0.247606 -0.968840 -0.006410 48 48 48 255
-0.000301 0.009765 0.012552 -0.263771 -0.964558 0.007246 48 48 48 255
-0.003388 0.010897 0.050864 -0.263771 -0.964558 0.007246 48 48 48 255
-0.005735 0.011251 0.012552 -0.263771 -0.964558 0.007246 48 48 48 255
-0.012272 0.009436 0.098552 0.271923 -0.962281 -0.008596 48 48 48 255
-0.009138 0.010684 0.057985 0.271923 -0.962281 -0.008596 48 48 48 255
-0.005888 0.011240 0.098552 0.271923 -0.962281 -0.008596 48 48 48 255
-0.011953 0.009598 0.012552 0.765532 -0.643396 0.001628 48 48 48 255
-0.012272 0.009436 0.098552 0.765532 -0.643396 0.001628 48 48 48 255
-0.017263 0.003280 0.012552 0.765532 -0.643396 0.001628 48 48 48 255
-0.017263 0.003280 0.012552 0.793657 -0.608360 -0.002513 48 48 48 255
-0.012272 0.009436 0.098552 0.793657 -0.608360 -0.002513 48 48 48 255
-0.017443 0.002690 0.098552 0.793657 -0.608360 -0.002513 48 48 48 255
-0.017263 0.003280 0.012552 0.997344 0.072796 0.002587 48 48 48 255
-0.017443 0.002690 0.098552 0.997344 0.072796 0.002587 48 48 48 255
-0.016615 -0.005598 0.012552 0.997344 0.072796 0.002587 48 48 48 255
-0.016615 -0.005598 0.012552 0.992458 0.122563 -0.002256 48 48 48 255
-0.017443 0.002690 0.098552 0.992458 0.122563 -0.002256 48 48 48 255
-0.016356 -0.006112 0.098552 0.992458 0.122563 -0.002256 48 48 48 255
-0.016615 -0.005598 0.012552 0.709318 0.704886 0.002077 48 48 48 255
-0.016356 -0.006112 0.098552 0.709318 0.704886 0.002077 48 48 48 255
-0.011048 -0.011200 0.012552 0.709318 0.704886 0.002077 48 48 48 255
-0.011048 -0.011200 0.012552 0.674277 0.738476 -0.002073 48 48 48 255
-0.016356 -0.006112 0.098552 0.674277 0.738476 -0.002073 48 48 48 255
-0.010524 -0.011437 0.098552 0.674277 0.738476 -0.002073 48 48 48 255
-0.011048 -0.011200 0.012552 0.080274 0.996770 0.002258 48 48 48 255
-0.010524 -0.011437 0.098552 0.080274 0.996770 0.002258 48 48 48 255
-0.002207 -0.011912 0.012552 0.080274 0.996770 0.002258 48 48 48 255
-0.002207 -0.011912 0.012552 0.030330 0.999537 -0.002588 48 48 48 255
-0.010524 -0.011437 0.098552 0.030330 0.999537 -0.002588 48 48 48 255
-0.001626 -0.011707 0.098552 0.030330 0.999537 -0.002588 48 48 48 255
-0.002207 -0.011912 0.012552 -0.630165 0.776458 0.002406 48 48 48 255
-0.001626 -0.011707 0.098552 -0.630165 0.776458 0.002406 48 48 48 255
0.003971 -0.006898 0.012552 -0.630165 0.776458 0.002406 48 48 48 255
0.003971 -0.006898 0.012552 -0.666366 0.745623 -0.001674 48 48 48 255
-0.001626 -0.011707 0.098552 -0.666366 0.745623 -0.001674 48 48 48 255
0.004235 -0.006469 0.098552 -0.666366 0.745623 -0.001674 48 48 48 255
0.003971 -0.006898 0.012552 -0.949657 0.313289 0.001352 48 48 48 255
0.004235 -0.006469 0.098552 -0.949657 0.313289 0.001352 48 48 48 255
0.005827 -0.001272 0.012552 -0.949657 0.313289 0.001352 48 48 48 255
0.005827 -0.001272 0.012552 -0.962227 0.272246 -0.001361 48 48 48 255
0.004235 -0.006469 0.098552 -0.962227 0.272246 -0.001361 48 48 48 255
0.005848 -0.000768 0.098552 -0.962227 0.272246 -0.001361 48 48 48 255
0.005827 -0.001272 0.012552 -0.976251 -0.216638 0.001508 48 48 48 255
0.005848 -0.000768 0.098552 -0.976251 -0.216638 0.001508 48 48 48 255
0.004336 0.005447 0.012552 -0.976251 -0.216638 0.001508 48 48 48 255
0.004336 0.005447 0.012552 -0.965295 -0.261155 -0.001902 48 48 48 255
0.005848 -0.000768 0.098552 -0.965295 -0.261155 -0.001902 48 48 48 255
0.004034 0.005937 0.098552 -0.965295 -0.261155 -0.001902 48 48 48 255
0.004336 0.005447 0.012552 -0.681485 -0.731830 0.001777 48 48 48 255
0.004034 0.005937 0.098552 -0.681485 -0.731830 0.001777 48 48 48 255
-0.000301 0.009765 0.012552 -0.681485 -0.731830 0.001777 48 48 48 255
-0.000301 0.009765 0.012552 -0.651881 -0.758321 -0.000895 48 48 48 255
0.004034 0.005937 0.098552 -0.651881 -0.758321 -0.000895 48 48 48 255
-0.000547 0.009875 0.098552 -0.651881 -0.758321 -0.000895 48 48 48 255
-0.010570 0.014570 0.061547 -0.291550 0.025417 0.956218 48 48 48 255
-0.005738 0.018380 0.062919 -0.291550 0.025417 0.956218 48 48 48 255
-0.010651 0.021579 0.061336 -0.291550 0.025417 0.956218 48 48 48 255
-0.010570 0.014570 0.061547 -0.853176 -0.040348 0.520060 48 48 48 255
-0.013767 0.021579 0.056846 -0.853176 -0.040348 0.520060 48 48 48 255
-0.013979 0.013005 0.055833 -0.853176 -0.040348 0.520060 48 48 48 255
-0.013522 0.021579 0.052144 -0.974908 -0.042087 -0.218593 48 48 48 255
-0.012739 0.013715 0.050166 -0.974908 -0.042087 -0.218593 48 48 48 255
-0.013979 0.013005 0.055833 -0.974908 -0.042087 -0.218593 48 48 48 255
-0.012739 0.013715 0.050166 -0.793445 0.072983 -0.604251 48 48 48 255
-0.013522 0.021579 0.052144 -0.793445 0.072983 -0.604251 48 48 48 255
-0.010111 0.021579 0.047665 -0.793445 0.072983 -0.604251 48 48 48 255
0.000544 0.021580 0.060127 0.972487 0.061436 0.224709 48 48 48 255
0.001726 0.013261 0.057286 0.972487 0.061436 0.224709 48 48 48 255
0.002113 0.021579 0.053337 0.972487 0.061436 0.224709 48 48 48 255
-0.001305 0.014593 0.061529 0.366366 0.088899 0.926214 48 48 48 255
0.000544 0.021580 0.060127 0.366366 0.088899 0.926214 48 48 48 255
-0.005738 0.018380 0.062919 0.366366 0.088899 0.926214 48 48 48 255
3 0 1 2
3 3 4 5
3 6 7 8
3 9 10 11
3 12 13 14
3 15 16 17
3 18 19 20
3 21 22 23
3 24 25 26
3 27 28 29
3 30 31 32
3 33 34 35
3 36 37 38
3 39 40 41
3 42 43 44
3 45 46 47
3 48 49 50
3 51 52 53
3 54 55 56
3 57 58 59
3 60 61 62
3 63 64 65
3 66 67 68
3 69 70 71
3 72 73 74
3 75 76 77
3 78 79 80
3 81 82 83
3 84 85 86
3 87 88 89
3 90 91 92
3 93 94 95
3 96 97 98
3 99 100 101
3 102 103 104
3 101 100 105
3 106 107 108
3 109 110 111
3 101 112 99
3 113 114 115
3 113 115 108
3 108 115 106
3 101 116 117
3 98 97 114
3 114 97 115
3 96 93 95
3 118 119 120
3 100 121 105
3 105 121 122
3 121 123 122
3 122 123 107
3 122 107 106
3 124 125 96
3 93 96 98
3 123 126 107
3 107 126 93
3 93 126 94
3 127 128 129
3 130 131 132
3 133 134 135
3 136 137 138
3 136 138 139
3 139 138 140
3 140 138 141
3 140 137 136
3 141 137 140
3 142 143 144
3 145 146 147
3 148 149 150
3 151 152 153
3 154 155 156
3 157 158 159
3 160 161 162
3 163 164 165
3 166 167 168
3 169 170 171
3 172 173 174
3 175 176 177
3 178 179 180
3 181 182 183
3 184 185 186
3 187 188 189
3 190 191 192
3 193 194 195
3 196 197 198
3 199 200 201
3 202 203 204
3 205 206 207
3 208 209 210
3 211 212 213
3 214 215 216
3 217 218 219
3 220 221 222
3 223 224 225
3 226 227 228
3 229 230 231
3 232 233 234
3 235 236 237
3 238 239 240
3 241 242 243
3 244 245 246
3 247 248 249
3 250 251 252
3 253 254 255
3 256 257 258
3 259 260 261
3 262 263 264
3 265 266 267
3 268 269 270
3 271 272 273
3 274 275 276
3 277 278 279
3 280 281 282
3 283 284 285
3 286 287 288
3 289 290 291
3 292 293 294
3 295 296 297
3 298 299 300
3 301 302 303
3 304 305 306
3 307 308 309
3 310 311 312
3 313 314 315
3 316 317 318
3 319 320 321
3 322 323 324
3 325 326 327
3 328 329 330
3 331 332 333
3 334 335 336
3 337 338 339
3 340 341 342
3 343 344 345
3 346 347 348
3 349 350 351
3 352 353 354
3 355 356 357
3 358 359 360
3 361 362 363
3 364 365 366
3 367 368 369
3 370 371 372
3 373 374 375
3 375 374 376
3 377 378 379
3 380 381 382
3 383 384 385
3 386 387 388
3 388 387 389
3 390 391 392
3 392 391 393
3 394 395 396
3 396 395 397
3 398 399 400
3 400 399 401
3 402 403 404
3 405 406 403
3 403 406 404
3 406 405 407
3 407 405 408
3 409 410 411
3 412 413 414
3 414 415 412
3 412 415 416
3 416 415 402
3 416 402 404
3 417 418 419
3 420 421 422
3 423 424 425
3 426 427 428
3 429 425 424
3 430 431 432
3 433 434 435
3 436 437 438
3 439 440 441
3 442 443 444
3 445 446 447
3 448 449 450
3 451 452 453
3 454 455 456
3 457 458 459
3 460 461 462
3 463 464 465
3 466 467 468
3 469 470 471
3 472 473 474
3 475 476 477
3 478 479 480
3 481 482 483
3 484 485 486
3 487 488 489
3 490 491 492
3 493 494 495
3 496 497 498
3 499 500 501
3 502 503 504
3 505 506 507
3 508 509 510
3 511 512 513
3 514 515 516
3 517 518 519
3 520 521 522
3 523 524 525
3 526 527 528
3 529 530 531
3 532 533 534
3 535 536 537
3 538 539 540
3 541 542 543
3 544 545 546
3 547 548 549
3 550 551 552
3 553 554 555
3 556 557 558
3 559 560 561
3 562 563 564
3 565 566 567
3 568 569 570
3 571 572 573
3 574 575 576
3 577 578 579
3 580 581 582
3 583 584 585
3 586 587 588
